<svg xmlns="http://www.w3.org/2000/svg" xmlns:xlink="http://www.w3.org/1999/xlink" version="1.1" id="Layer_1" x="0px" y="0px" width="100px" height="100px" viewBox="0 0 100 100" enable-background="new 0 0 100 100" xml:space="preserve">
<path d="M95,56.823c0-0.354-0.109-4.296-0.932-5.567c-0.814-1.288-4.745-3.47-6.947-4.058c-2.202-0.566-16.93-2.66-16.93-2.66  S57.217,37.53,55.255,36.55c-1.969-0.995-4.528-1.516-5.925-1.636c-1.388-0.106-11.831-0.351-14.157,0  c-2.305,0.351-11.462,4.632-13.442,5.573c-1.962,0.914-7.072,1.615-7.072,1.615S6.67,43.394,6.67,44.308  c0,0.931,0.924,0.057,0.4,1.381c-0.514,1.35-0.514,5.577-1.335,6.147c-0.807,0.584-0.867,3.301-0.577,4.521  c0.301,1.211,1.399,2.315,1.399,2.315l7.667,1.312c-0.088-0.469-0.131-0.942-0.131-1.424c0-4.61,3.736-8.351,8.329-8.351  c4.618,0,8.346,3.739,8.346,8.351c0,1.09-0.212,2.135-0.595,3.092l0.368,0.035h39.158c-0.387-0.961-0.62-2.02-0.62-3.127  c0-4.61,3.735-8.351,8.347-8.351c4.614,0,8.356,3.739,8.356,8.351c0,1.107-0.24,2.166-0.616,3.127h1.955c0,0,7.195-0.848,7.422-1.51  c0.217-0.634,0-1.519,0-2.078C94.543,57.531,95,57.17,95,56.823z M77.426,51.852c-3.699,0-6.695,3.01-6.695,6.711  c0,3.699,2.996,6.707,6.695,6.707c3.707,0,6.707-3.008,6.707-6.707C84.133,54.861,81.133,51.852,77.426,51.852z M22.422,51.852  c-3.69,0-6.693,3.01-6.693,6.711c0,3.699,3.003,6.707,6.693,6.707c3.7,0,6.725-3.008,6.725-6.707  C29.147,54.861,26.122,51.852,22.422,51.852z"/>
</svg>